<?xml version="1.0" encoding="UTF-8" standalone="no"?>
<!DOCTYPE svg PUBLIC "-//W3C//DTD SVG 1.1//EN"
 "http://www.w3.org/Graphics/SVG/1.1/DTD/svg11.dtd">
<!-- Generated by graphviz version 2.38.0 (20140413.2041)
 -->
<!-- Title: models_diagram Pages: 1 -->
<svg width="746pt" height="431pt"
 viewBox="0.00 0.00 746.00 431.00" xmlns="http://www.w3.org/2000/svg" xmlns:xlink="http://www.w3.org/1999/xlink">
<g id="graph0" class="graph" transform="scale(1 1) rotate(0) translate(4 427)">
<title>models_diagram</title>
<polygon fill="none" stroke="none" points="-4,4 -4,-427 742,-427 742,4 -4,4"/>
<!-- _diagram_info -->
<g id="node1" class="node"><title>_diagram_info</title>
<text text-anchor="start" x="8" y="-394.1" font-family="Times,serif" font-size="13.00">Models diagram</text>
<text text-anchor="start" x="8" y="-380.1" font-family="Times,serif" font-size="13.00">Date: Jul 18 2016 &#45; 22:09</text>
<text text-anchor="start" x="8" y="-366.1" font-family="Times,serif" font-size="13.00">Migration version: 20160719010118</text>
<text text-anchor="start" x="8" y="-352.1" font-family="Times,serif" font-size="13.00">Generated by RailRoady 1.5.1</text>
<text text-anchor="start" x="8" y="-338.1" font-family="Times,serif" font-size="13.00">http://railroady.prestonlee.com</text>
</g>
<!-- Inventory -->
<g id="node2" class="node"><title>Inventory</title>
<path fill="none" stroke="black" d="M244,-0.5C244,-0.5 464,-0.5 464,-0.5 470,-0.5 476,-6.5 476,-12.5 476,-12.5 476,-109.5 476,-109.5 476,-115.5 470,-121.5 464,-121.5 464,-121.5 244,-121.5 244,-121.5 238,-121.5 232,-115.5 232,-109.5 232,-109.5 232,-12.5 232,-12.5 232,-6.5 238,-0.5 244,-0.5"/>
<text text-anchor="middle" x="354" y="-106.3" font-family="Times,serif" font-size="14.00">Inventory</text>
<polyline fill="none" stroke="black" points="232,-98.5 476,-98.5 "/>
<text text-anchor="start" x="240" y="-83.3" font-family="Times,serif" font-size="14.00">id :integer</text>
<text text-anchor="start" x="240" y="-68.3" font-family="Times,serif" font-size="14.00">serial_number :integer</text>
<text text-anchor="start" x="240" y="-53.3" font-family="Times,serif" font-size="14.00">wheel_size :integer</text>
<text text-anchor="start" x="240" y="-38.3" font-family="Times,serif" font-size="14.00">description :text</text>
<text text-anchor="start" x="240" y="-23.3" font-family="Times,serif" font-size="14.00">created_at :timestamp without time zone</text>
<text text-anchor="start" x="240" y="-8.3" font-family="Times,serif" font-size="14.00">updated_at :timestamp without time zone</text>
</g>
<!-- Work -->
<g id="node3" class="node"><title>Work</title>
<path fill="none" stroke="black" d="M244,-158.5C244,-158.5 464,-158.5 464,-158.5 470,-158.5 476,-164.5 476,-170.5 476,-170.5 476,-267.5 476,-267.5 476,-273.5 470,-279.5 464,-279.5 464,-279.5 244,-279.5 244,-279.5 238,-279.5 232,-273.5 232,-267.5 232,-267.5 232,-170.5 232,-170.5 232,-164.5 238,-158.5 244,-158.5"/>
<text text-anchor="middle" x="354" y="-264.3" font-family="Times,serif" font-size="14.00">Work</text>
<polyline fill="none" stroke="black" points="232,-256.5 476,-256.5 "/>
<text text-anchor="start" x="240" y="-241.3" font-family="Times,serif" font-size="14.00">id :integer</text>
<text text-anchor="start" x="240" y="-226.3" font-family="Times,serif" font-size="14.00">description :text</text>
<text text-anchor="start" x="240" y="-211.3" font-family="Times,serif" font-size="14.00">user_id :integer</text>
<text text-anchor="start" x="240" y="-196.3" font-family="Times,serif" font-size="14.00">created_at :timestamp without time zone</text>
<text text-anchor="start" x="240" y="-181.3" font-family="Times,serif" font-size="14.00">updated_at :timestamp without time zone</text>
<text text-anchor="start" x="240" y="-166.3" font-family="Times,serif" font-size="14.00">inventory_id :integer</text>
</g>
<!-- Work&#45;&gt;Inventory -->
<g id="edge1" class="edge"><title>Work&#45;&gt;Inventory</title>
<path fill="none" stroke="#657cd9" d="M354,-149.936C354,-143.327 354,-136.621 354,-130.012"/>
<ellipse fill="none" stroke="#657cd9" cx="354" cy="-154.132" rx="4" ry="4"/>
<ellipse fill="#657cd9" stroke="#657cd9" cx="354" cy="-125.707" rx="4" ry="4"/>
</g>
<!-- User -->
<g id="node4" class="node"><title>User</title>
<path fill="none" stroke="black" d="M244,-316.5C244,-316.5 464,-316.5 464,-316.5 470,-316.5 476,-322.5 476,-328.5 476,-328.5 476,-410.5 476,-410.5 476,-416.5 470,-422.5 464,-422.5 464,-422.5 244,-422.5 244,-422.5 238,-422.5 232,-416.5 232,-410.5 232,-410.5 232,-328.5 232,-328.5 232,-322.5 238,-316.5 244,-316.5"/>
<text text-anchor="middle" x="354" y="-407.3" font-family="Times,serif" font-size="14.00">User</text>
<polyline fill="none" stroke="black" points="232,-399.5 476,-399.5 "/>
<text text-anchor="start" x="240" y="-384.3" font-family="Times,serif" font-size="14.00">id :integer</text>
<text text-anchor="start" x="240" y="-369.3" font-family="Times,serif" font-size="14.00">name :character varying</text>
<text text-anchor="start" x="240" y="-354.3" font-family="Times,serif" font-size="14.00">email :character varying</text>
<text text-anchor="start" x="240" y="-339.3" font-family="Times,serif" font-size="14.00">created_at :timestamp without time zone</text>
<text text-anchor="start" x="240" y="-324.3" font-family="Times,serif" font-size="14.00">updated_at :timestamp without time zone</text>
</g>
<!-- User&#45;&gt;Work -->
<g id="edge2" class="edge"><title>User&#45;&gt;Work</title>
<path fill="none" stroke="#16089e" d="M354,-308.033C354,-302.052 354,-295.948 354,-289.882"/>
<ellipse fill="none" stroke="#16089e" cx="354" cy="-312.144" rx="4" ry="4"/>
<polygon fill="#16089e" stroke="#16089e" points="354,-289.74 358.5,-279.739 354,-284.74 354,-279.74 354,-279.74 354,-279.74 354,-284.74 349.5,-279.74 354,-289.74 354,-289.74"/>
</g>
<!-- Category -->
<g id="node5" class="node"><title>Category</title>
<path fill="none" stroke="black" d="M506,-324C506,-324 726,-324 726,-324 732,-324 738,-330 738,-336 738,-336 738,-403 738,-403 738,-409 732,-415 726,-415 726,-415 506,-415 506,-415 500,-415 494,-409 494,-403 494,-403 494,-336 494,-336 494,-330 500,-324 506,-324"/>
<text text-anchor="middle" x="616" y="-399.8" font-family="Times,serif" font-size="14.00">Category</text>
<polyline fill="none" stroke="black" points="494,-392 738,-392 "/>
<text text-anchor="start" x="502" y="-376.8" font-family="Times,serif" font-size="14.00">id :integer</text>
<text text-anchor="start" x="502" y="-361.8" font-family="Times,serif" font-size="14.00">name :character varying</text>
<text text-anchor="start" x="502" y="-346.8" font-family="Times,serif" font-size="14.00">created_at :timestamp without time zone</text>
<text text-anchor="start" x="502" y="-331.8" font-family="Times,serif" font-size="14.00">updated_at :timestamp without time zone</text>
</g>
</g>
</svg>
